<mxfile host="app.diagrams.net" agent="Mozilla/5.0 (Windows NT 10.0; Win64; x64) AppleWebKit/537.36 (KHTML, like Gecko) Chrome/131.0.0.0 Safari/537.36" version="26.0.6">
  <diagram name="Page-1" id="Vk9gjUj2uyTfg_WlVlaA">
    <mxGraphModel dx="1035" dy="595" grid="1" gridSize="10" guides="1" tooltips="1" connect="1" arrows="1" fold="1" page="1" pageScale="1" pageWidth="850" pageHeight="1100" math="0" shadow="0">
      <root>
        <mxCell id="0" />
        <mxCell id="1" parent="0" />
        <mxCell id="q7fIM0WBCql1DajR6492-3" value="" style="edgeStyle=orthogonalEdgeStyle;rounded=0;orthogonalLoop=1;jettySize=auto;html=1;" edge="1" parent="1" source="q7fIM0WBCql1DajR6492-1" target="q7fIM0WBCql1DajR6492-2">
          <mxGeometry relative="1" as="geometry" />
        </mxCell>
        <mxCell id="q7fIM0WBCql1DajR6492-1" value="Start" style="ellipse;whiteSpace=wrap;html=1;" vertex="1" parent="1">
          <mxGeometry x="350" y="30" width="110" height="50" as="geometry" />
        </mxCell>
        <mxCell id="q7fIM0WBCql1DajR6492-5" value="" style="edgeStyle=orthogonalEdgeStyle;rounded=0;orthogonalLoop=1;jettySize=auto;html=1;" edge="1" parent="1" source="q7fIM0WBCql1DajR6492-2" target="q7fIM0WBCql1DajR6492-4">
          <mxGeometry relative="1" as="geometry" />
        </mxCell>
        <mxCell id="q7fIM0WBCql1DajR6492-2" value="int: row, iter = 1&lt;div&gt;a = &#39;*&#39;&lt;/div&gt;&lt;div&gt;b = &#39; &#39;&lt;/div&gt;" style="shape=hexagon;perimeter=hexagonPerimeter2;whiteSpace=wrap;html=1;fixedSize=1;" vertex="1" parent="1">
          <mxGeometry x="345" y="110" width="120" height="80" as="geometry" />
        </mxCell>
        <mxCell id="q7fIM0WBCql1DajR6492-9" value="" style="edgeStyle=orthogonalEdgeStyle;rounded=0;orthogonalLoop=1;jettySize=auto;html=1;" edge="1" parent="1" source="q7fIM0WBCql1DajR6492-4" target="q7fIM0WBCql1DajR6492-8">
          <mxGeometry relative="1" as="geometry" />
        </mxCell>
        <mxCell id="q7fIM0WBCql1DajR6492-14" value="" style="edgeStyle=orthogonalEdgeStyle;rounded=0;orthogonalLoop=1;jettySize=auto;html=1;" edge="1" parent="1" source="q7fIM0WBCql1DajR6492-4" target="q7fIM0WBCql1DajR6492-13">
          <mxGeometry relative="1" as="geometry" />
        </mxCell>
        <mxCell id="q7fIM0WBCql1DajR6492-4" value="iter &amp;lt;= 5" style="rhombus;whiteSpace=wrap;html=1;" vertex="1" parent="1">
          <mxGeometry x="365" y="220" width="80" height="80" as="geometry" />
        </mxCell>
        <mxCell id="q7fIM0WBCql1DajR6492-11" value="" style="edgeStyle=orthogonalEdgeStyle;rounded=0;orthogonalLoop=1;jettySize=auto;html=1;" edge="1" parent="1" source="q7fIM0WBCql1DajR6492-8" target="q7fIM0WBCql1DajR6492-10">
          <mxGeometry relative="1" as="geometry" />
        </mxCell>
        <mxCell id="q7fIM0WBCql1DajR6492-8" value="print a,b" style="whiteSpace=wrap;html=1;" vertex="1" parent="1">
          <mxGeometry x="347.5" y="330" width="115" height="30" as="geometry" />
        </mxCell>
        <mxCell id="q7fIM0WBCql1DajR6492-10" value="iter ++" style="whiteSpace=wrap;html=1;" vertex="1" parent="1">
          <mxGeometry x="357.5" y="390" width="95" height="25" as="geometry" />
        </mxCell>
        <mxCell id="q7fIM0WBCql1DajR6492-12" value="" style="endArrow=classic;html=1;rounded=0;exitX=0;exitY=0.5;exitDx=0;exitDy=0;" edge="1" parent="1" source="q7fIM0WBCql1DajR6492-10">
          <mxGeometry width="50" height="50" relative="1" as="geometry">
            <mxPoint x="260" y="360" as="sourcePoint" />
            <mxPoint x="360" y="260" as="targetPoint" />
            <Array as="points">
              <mxPoint x="310" y="403" />
              <mxPoint x="310" y="260" />
            </Array>
          </mxGeometry>
        </mxCell>
        <mxCell id="q7fIM0WBCql1DajR6492-16" value="" style="edgeStyle=orthogonalEdgeStyle;rounded=0;orthogonalLoop=1;jettySize=auto;html=1;" edge="1" parent="1" source="q7fIM0WBCql1DajR6492-13" target="q7fIM0WBCql1DajR6492-15">
          <mxGeometry relative="1" as="geometry" />
        </mxCell>
        <mxCell id="q7fIM0WBCql1DajR6492-13" value="print /n" style="whiteSpace=wrap;html=1;" vertex="1" parent="1">
          <mxGeometry x="490" y="245" width="70" height="30" as="geometry" />
        </mxCell>
        <mxCell id="q7fIM0WBCql1DajR6492-20" value="" style="edgeStyle=orthogonalEdgeStyle;rounded=0;orthogonalLoop=1;jettySize=auto;html=1;" edge="1" parent="1" source="q7fIM0WBCql1DajR6492-15" target="q7fIM0WBCql1DajR6492-19">
          <mxGeometry relative="1" as="geometry" />
        </mxCell>
        <mxCell id="q7fIM0WBCql1DajR6492-15" value="row ++" style="whiteSpace=wrap;html=1;" vertex="1" parent="1">
          <mxGeometry x="580" y="250" width="55" height="20" as="geometry" />
        </mxCell>
        <mxCell id="q7fIM0WBCql1DajR6492-22" value="" style="edgeStyle=orthogonalEdgeStyle;rounded=0;orthogonalLoop=1;jettySize=auto;html=1;" edge="1" parent="1" source="q7fIM0WBCql1DajR6492-19" target="q7fIM0WBCql1DajR6492-21">
          <mxGeometry relative="1" as="geometry" />
        </mxCell>
        <mxCell id="q7fIM0WBCql1DajR6492-19" value="iter = 1" style="whiteSpace=wrap;html=1;" vertex="1" parent="1">
          <mxGeometry x="660" y="245" width="80" height="30" as="geometry" />
        </mxCell>
        <mxCell id="q7fIM0WBCql1DajR6492-26" value="" style="edgeStyle=orthogonalEdgeStyle;rounded=0;orthogonalLoop=1;jettySize=auto;html=1;" edge="1" parent="1" source="q7fIM0WBCql1DajR6492-21" target="q7fIM0WBCql1DajR6492-25">
          <mxGeometry relative="1" as="geometry" />
        </mxCell>
        <mxCell id="q7fIM0WBCql1DajR6492-28" value="" style="edgeStyle=orthogonalEdgeStyle;rounded=0;orthogonalLoop=1;jettySize=auto;html=1;" edge="1" parent="1" source="q7fIM0WBCql1DajR6492-21" target="q7fIM0WBCql1DajR6492-27">
          <mxGeometry relative="1" as="geometry" />
        </mxCell>
        <mxCell id="q7fIM0WBCql1DajR6492-21" value="row &amp;lt;= 6" style="rhombus;whiteSpace=wrap;html=1;" vertex="1" parent="1">
          <mxGeometry x="790" y="230" width="60" height="60" as="geometry" />
        </mxCell>
        <mxCell id="q7fIM0WBCql1DajR6492-25" value="Stop" style="ellipse;whiteSpace=wrap;html=1;" vertex="1" parent="1">
          <mxGeometry x="910" y="240" width="80" height="40" as="geometry" />
        </mxCell>
        <mxCell id="q7fIM0WBCql1DajR6492-31" value="" style="edgeStyle=orthogonalEdgeStyle;rounded=0;orthogonalLoop=1;jettySize=auto;html=1;" edge="1" parent="1" source="q7fIM0WBCql1DajR6492-27" target="q7fIM0WBCql1DajR6492-30">
          <mxGeometry relative="1" as="geometry" />
        </mxCell>
        <mxCell id="q7fIM0WBCql1DajR6492-27" value="row &amp;lt;= 5" style="rhombus;whiteSpace=wrap;html=1;" vertex="1" parent="1">
          <mxGeometry x="790" y="315" width="60" height="60" as="geometry" />
        </mxCell>
        <mxCell id="q7fIM0WBCql1DajR6492-33" value="" style="edgeStyle=orthogonalEdgeStyle;rounded=0;orthogonalLoop=1;jettySize=auto;html=1;" edge="1" parent="1" source="q7fIM0WBCql1DajR6492-30" target="q7fIM0WBCql1DajR6492-32">
          <mxGeometry relative="1" as="geometry" />
        </mxCell>
        <mxCell id="q7fIM0WBCql1DajR6492-30" value="print a" style="whiteSpace=wrap;html=1;" vertex="1" parent="1">
          <mxGeometry x="880" y="327.5" width="70" height="35" as="geometry" />
        </mxCell>
        <mxCell id="q7fIM0WBCql1DajR6492-35" value="" style="edgeStyle=orthogonalEdgeStyle;rounded=0;orthogonalLoop=1;jettySize=auto;html=1;" edge="1" parent="1" source="q7fIM0WBCql1DajR6492-32" target="q7fIM0WBCql1DajR6492-34">
          <mxGeometry relative="1" as="geometry" />
        </mxCell>
        <mxCell id="q7fIM0WBCql1DajR6492-40" value="" style="edgeStyle=orthogonalEdgeStyle;rounded=0;orthogonalLoop=1;jettySize=auto;html=1;" edge="1" parent="1" source="q7fIM0WBCql1DajR6492-32" target="q7fIM0WBCql1DajR6492-39">
          <mxGeometry relative="1" as="geometry" />
        </mxCell>
        <mxCell id="q7fIM0WBCql1DajR6492-32" value="iter &amp;lt;= 7" style="rhombus;whiteSpace=wrap;html=1;" vertex="1" parent="1">
          <mxGeometry x="990" y="312.5" width="65" height="65" as="geometry" />
        </mxCell>
        <mxCell id="q7fIM0WBCql1DajR6492-37" value="" style="edgeStyle=orthogonalEdgeStyle;rounded=0;orthogonalLoop=1;jettySize=auto;html=1;" edge="1" parent="1" source="q7fIM0WBCql1DajR6492-34" target="q7fIM0WBCql1DajR6492-36">
          <mxGeometry relative="1" as="geometry" />
        </mxCell>
        <mxCell id="q7fIM0WBCql1DajR6492-34" value="print b" style="whiteSpace=wrap;html=1;" vertex="1" parent="1">
          <mxGeometry x="983.75" y="410" width="77.5" height="30" as="geometry" />
        </mxCell>
        <mxCell id="q7fIM0WBCql1DajR6492-36" value="iter ++" style="whiteSpace=wrap;html=1;" vertex="1" parent="1">
          <mxGeometry x="978.75" y="470" width="87.5" height="25" as="geometry" />
        </mxCell>
        <mxCell id="q7fIM0WBCql1DajR6492-38" value="" style="endArrow=classic;html=1;rounded=0;exitX=0.5;exitY=1;exitDx=0;exitDy=0;entryX=0;entryY=0.5;entryDx=0;entryDy=0;" edge="1" parent="1" source="q7fIM0WBCql1DajR6492-36" target="q7fIM0WBCql1DajR6492-32">
          <mxGeometry width="50" height="50" relative="1" as="geometry">
            <mxPoint x="850" y="530" as="sourcePoint" />
            <mxPoint x="970" y="350" as="targetPoint" />
            <Array as="points">
              <mxPoint x="1023" y="540" />
              <mxPoint x="970" y="540" />
              <mxPoint x="970" y="345" />
            </Array>
          </mxGeometry>
        </mxCell>
        <mxCell id="q7fIM0WBCql1DajR6492-39" value="iter &amp;lt;= 8" style="rhombus;whiteSpace=wrap;html=1;" vertex="1" parent="1">
          <mxGeometry x="1090" y="316.25" width="60" height="57.5" as="geometry" />
        </mxCell>
        <mxCell id="q7fIM0WBCql1DajR6492-41" value="" style="endArrow=classic;html=1;rounded=0;exitX=0.5;exitY=1;exitDx=0;exitDy=0;" edge="1" parent="1" source="q7fIM0WBCql1DajR6492-39">
          <mxGeometry width="50" height="50" relative="1" as="geometry">
            <mxPoint x="850" y="430" as="sourcePoint" />
            <mxPoint x="910" y="370" as="targetPoint" />
            <Array as="points">
              <mxPoint x="1120" y="550" />
              <mxPoint x="910" y="550" />
            </Array>
          </mxGeometry>
        </mxCell>
        <mxCell id="q7fIM0WBCql1DajR6492-42" value="row = 6" style="rhombus;whiteSpace=wrap;html=1;" vertex="1" parent="1">
          <mxGeometry x="510" y="450" width="80" height="80" as="geometry" />
        </mxCell>
        <mxCell id="q7fIM0WBCql1DajR6492-43" value="" style="endArrow=classic;html=1;rounded=0;entryX=1;entryY=0.5;entryDx=0;entryDy=0;" edge="1" parent="1" target="q7fIM0WBCql1DajR6492-42">
          <mxGeometry width="50" height="50" relative="1" as="geometry">
            <mxPoint x="820" y="380" as="sourcePoint" />
            <mxPoint x="740" y="570" as="targetPoint" />
            <Array as="points">
              <mxPoint x="820" y="490" />
            </Array>
          </mxGeometry>
        </mxCell>
        <mxCell id="q7fIM0WBCql1DajR6492-44" value="" style="endArrow=classic;html=1;rounded=0;exitX=0;exitY=0.5;exitDx=0;exitDy=0;" edge="1" parent="1" source="q7fIM0WBCql1DajR6492-42">
          <mxGeometry width="50" height="50" relative="1" as="geometry">
            <mxPoint x="550" y="430" as="sourcePoint" />
            <mxPoint x="360" y="260" as="targetPoint" />
            <Array as="points">
              <mxPoint x="310" y="490" />
              <mxPoint x="310" y="260" />
            </Array>
          </mxGeometry>
        </mxCell>
        <mxCell id="q7fIM0WBCql1DajR6492-45" value="" style="endArrow=classic;html=1;rounded=0;" edge="1" parent="1">
          <mxGeometry width="50" height="50" relative="1" as="geometry">
            <mxPoint x="1120" y="316.25" as="sourcePoint" />
            <mxPoint x="520" y="240" as="targetPoint" />
            <Array as="points">
              <mxPoint x="1120" y="230" />
              <mxPoint x="520" y="230" />
            </Array>
          </mxGeometry>
        </mxCell>
      </root>
    </mxGraphModel>
  </diagram>
</mxfile>
